<svg xmlns="http://www.w3.org/2000/svg" width="30" height="33" viewBox="0 0 24 24" fill="none" stroke="#004aad" stroke-width="2" stroke-linecap="round" stroke-linejoin="round">
  <path d="M12 1C5.925 1 1 5.925 1 12c0 4.867 3.163 8.996 7.553 10.44.552.102.753-.24.753-.53 0-.26-.01-1.13-.015-2.05-3.07.67-3.715-1.48-3.715-1.48-.502-1.27-1.23-1.61-1.23-1.61-1.005-.687.076-.673.076-.673 1.112.078 1.697 1.144 1.697 1.144.99 1.697 2.595 1.207 3.23.924.1-.717.388-1.207.705-1.484-2.452-.28-5.03-1.227-5.03-5.46 0-1.206.43-2.19 1.144-2.96-.114-.28-.497-1.403.108-2.927 0 0 .94-.3 3.08 1.128A10.75 10.75 0 0 1 12 6.845a10.72 10.72 0 0 1 2.805.38c2.14-1.428 3.08-1.128 3.08-1.128.605 1.524.222 2.647.11 2.927.717.77 1.143 1.753 1.143 2.96 0 4.245-2.58 5.177-5.038 5.45.398.34.75 1.012.75 2.038 0 1.47-.013 2.653-.013 3.015 0 .292.2.636.76.527C19.84 20.995 23 16.867 23 12c0-6.075-4.925-11-11-11z"></path>
</svg>
